<?xml version="1.0" encoding="UTF-8"?>
<svg width="70px" height="87px" viewBox="0 0 70 87" version="1.1" xmlns="http://www.w3.org/2000/svg" xmlns:xlink="http://www.w3.org/1999/xlink">
    <!-- Generator: Sketch 53.2 (72643) - https://sketchapp.com -->
    <title>Element 2</title>
    <desc>Created with Sketch.</desc>
    <g id="Page-1" stroke="none" stroke-width="1" fill="none" fill-rule="evenodd">
        <g id="Element-2" fill="#FFFFFF" fill-rule="nonzero">
            <path d="M11.49,0 L58.42,0 L58.42,14.07 L11.49,14.07 L11.49,0 Z M46.82,46.91 L23.23,46.91 C16.7804883,46.8449053 11.569594,41.6295649 11.51,35.18 L11.51,17.25 L27.09,17.25 L27.09,35.19 L42.9,35.19 L42.9,17.25 L58.42,17.25 L58.42,35.18 C58.4203948,41.6078697 53.2474749,46.8387619 46.82,46.91 Z" id="Shape"></path>
            <path d="M17.26,50.06 L20.26,50.06 L27.35,65.06 L23.48,65.06 L22.09,62.06 L15.4,62.06 L14.04,65.06 L10.36,65.06 L17.26,50.06 Z M18.74,55 L16.74,59.44 L20.87,59.44 L18.74,55 Z" id="Shape"></path>
            <path d="M51.78,50.86 L51.78,54.6 C50.2711661,53.7284439 48.5795003,53.221629 46.84,53.12 C45.5799845,53.0633322 44.3504376,53.5176516 43.43,54.38 C42.5653603,55.2903218 42.1133148,56.5162693 42.18,57.77 C42.1223889,58.9906275 42.6095976,60.1738487 43.51,61 C44.5078823,61.8396892 45.7876434,62.2686594 47.09,62.2 C48.7414198,62.091914 50.3459746,61.6060999 51.78,60.78 L51.78,64.42 C50.1256634,64.9500994 48.4061409,65.2495857 46.67,65.31 C44.4854931,65.3496882 42.3694067,64.5476521 40.76,63.07 C39.1744744,61.7192963 38.2727994,59.732679 38.3,57.65 C38.2766396,55.5309631 39.1918689,53.5101367 40.8,52.13 C42.4607481,50.6219241 44.6372769,49.8093056 46.88,49.86 C48.5601135,49.8965423 50.219923,50.2352789 51.78,50.86 L51.78,50.86 Z" id="Path"></path>
            <path d="M59.54,50.06 L62.54,50.06 L69.54,65.06 L65.76,65.06 L64.37,62.06 L57.69,62.06 L56.33,65.06 L52.58,65.06 L59.54,50.06 Z M61,55 L59,59.44 L63.14,59.44 L61,55 Z" id="Shape"></path>
            <path d="M39.66,64 C38.9839458,63.3870756 38.4219147,62.6591437 38,61.85 L32.55,61.85 L32.55,50 L28.89,50 L28.89,65.09 L41.13,65.09 C40.6025427,64.7801111 40.1097403,64.4146998 39.66,64 L39.66,64 Z" id="Path"></path>
            <polygon id="Path" points="11.57 50.06 0 50.06 0 53.26 3.96 53.26 3.96 65.09 7.71 65.09 7.71 53.26 11.55 53.26"></polygon>
            <path d="M4.07,68.21 L5.64,68.21 L5.64,72.35 C5.62279634,72.6873959 5.74860989,73.0164142 5.98654111,73.2562489 C6.22447233,73.4960836 6.55247777,73.6245147 6.89,73.61 C7.25709993,73.6344722 7.61828537,73.5080573 7.89,73.26 C8.1540114,72.9975967 8.28617663,72.630471 8.25,72.26 L8.25,68.21 L9.84,68.21 L9.84,72.52 C9.83090417,72.9316602 9.71735095,73.3342579 9.51,73.69 C9.29011598,74.1055468 8.93834068,74.4362156 8.51,74.63 C8.03929396,74.8609356 7.52414757,74.9871636 7,75 C6.17932515,75.0614408 5.36944548,74.7830446 4.76,74.23 C4.33685329,73.8024976 4.09046375,73.2311595 4.07,72.63 L4.07,68.21 Z" id="Path"></path>
            <polygon id="Path" points="16.15 68.21 17.75 68.21 17.75 74.86 16.15 74.86 12.78 70.55 12.78 74.86 11.18 74.86 11.18 68.21 12.77 68.21 16.15 72.49"></polygon>
            <polygon id="Path" points="19 68.21 20.59 68.21 20.59 74.86 19 74.86"></polygon>
            <polygon id="Path" points="21.35 68.21 22.96 68.21 24.82 72.65 26.7 68.21 28.32 68.21 25.52 74.86 24.13 74.86"></polygon>
            <polygon id="Path" points="29.17 68.21 33.33 68.21 33.33 69.53 30.76 69.53 30.76 70.88 33.33 70.88 33.33 72.16 30.76 72.16 30.76 73.54 33.33 73.54 33.33 74.86 29.17 74.86"></polygon>
            <path d="M34.54,68.21 L37,68.21 C37.6286459,68.1789164 38.2481763,68.3700857 38.75,68.75 C39.1992519,69.1001636 39.4432828,69.6520489 39.4,70.22 C39.3914627,70.5962035 39.2882879,70.9641939 39.1,71.29 C38.8510195,71.69763 38.4643718,72.0026915 38.01,72.15 L40.08,74.91 L38.23,74.91 L36.32,72.35 L36.14,72.35 L36.14,74.91 L34.54,74.91 L34.54,68.21 Z M36.16,69.4 L36.16,71.13 L36.5,71.13 C37.32,71.13 37.74,70.82 37.74,70.21 C37.7489658,69.9671017 37.6216613,69.7394967 37.41,69.62 C37.1410018,69.4528884 36.8257563,69.3758283 36.51,69.4 L36.16,69.4 Z" id="Shape"></path>
            <path d="M45.31,68.82 L44.31,69.82 C43.971794,69.6035332 43.5888171,69.4667557 43.19,69.42 C43.0201769,69.4133418 42.8546792,69.474504 42.73,69.59 C42.6098324,69.7008229 42.5410295,69.8565347 42.54,70.02 C42.54,70.35 42.88,70.63 43.54,70.87 C43.9183827,71.0016849 44.2833639,71.1691074 44.63,71.37 C44.8810663,71.5311315 45.092906,71.7463879 45.25,72 C45.419554,72.2542462 45.506831,72.554479 45.5,72.86 C45.4937217,73.4454528 45.2121492,73.9937783 44.74,74.34 C44.2318083,74.7615 43.5901901,74.9883705 42.93,74.98 C42.0772144,74.9448849 41.2695191,74.5874975 40.67,73.98 L41.67,72.89 C42.0177566,73.2580296 42.4862618,73.488733 42.99,73.54 C43.1982454,73.5376698 43.3966663,73.4510862 43.54,73.3 C43.6924557,73.1899774 43.7878056,73.017614 43.8,72.83 C43.8,72.47 43.4,72.16 42.59,71.91 C42.2400127,71.8090033 41.9040618,71.6645444 41.59,71.48 C41.3801147,71.3271728 41.2116917,71.1243778 41.1,70.89 C40.9711506,70.6495286 40.8993007,70.3826575 40.89,70.11 C40.8682787,69.5430987 41.1078674,68.9975736 41.54,68.63 C42.0115697,68.2431252 42.6109395,68.046903 43.22,68.08 C43.9719389,68.0609494 44.7035989,68.3250608 45.27,68.82 L45.31,68.82 Z" id="Path"></path>
            <polygon id="Path" points="46.45 68.21 48.05 68.21 48.05 74.86 46.45 74.86"></polygon>
            <path d="M49.38,68.21 L51.9,68.21 C52.8526883,68.1711697 53.783754,68.5006237 54.5,69.13 C55.1727919,69.7462982 55.5388205,70.628427 55.5,71.54 C55.5430307,72.4523141 55.17629,73.3361592 54.5,73.95 C53.7419493,74.5800503 52.7743594,74.9013902 51.79,74.85 L49.38,74.85 L49.38,68.21 Z M51,69.4699983 L51,73.57 L51.63,73.57 C52.2183221,73.6000454 52.7996026,73.4309456 53.28,73.09 C53.732453,72.6835076 53.9629461,72.0849691 53.9,71.48 C53.9111368,71.0759672 53.8070859,70.6771052 53.6,70.33 C53.4090331,69.9909655 53.087305,69.7451507 52.71,69.65 C52.3590421,69.5304486 51.9907612,69.4696316 51.62,69.47 L51,69.4699983 Z" id="Shape"></path>
            <path d="M58.37,68.21 L59.6,68.21 L62.6,74.85 L61,74.85 L60.41,73.55 L57.59,73.55 L57,74.85 L55.42,74.85 L58.37,68.21 Z M59,70.39 L58.12,72.39 L59.88,72.39 L59,70.39 Z" id="Shape"></path>
            <path d="M63.61,68.21 L66.13,68.21 C67.0826883,68.1711697 68.013754,68.5006237 68.73,69.13 C69.3938199,69.7525466 69.7580604,70.6303662 69.73,71.54 C69.7633578,72.4505967 69.3982428,73.3305239 68.73,73.95 C67.9719493,74.5800503 67.0043594,74.9013902 66.02,74.85 L63.61,74.85 L63.61,68.21 Z M65.21,69.47 L65.21,73.57 L65.85,73.57 C66.4197211,73.6000051 66.9820524,73.4302447 67.44,73.09 C67.8929842,72.6844171 68.120501,72.083922 68.05,71.48 C68.057573,71.0750549 67.9500757,70.6762745 67.74,70.33 C67.5485827,69.9995863 67.2368645,69.7559445 66.87,69.65 C66.5154284,69.5311171 66.1439706,69.4703331 65.77,69.47 L65.21,69.47 Z" id="Shape"></path>
            <path d="M29.94,80.28 L29.94,81.28 C29.401718,80.9984231 28.8071099,80.8412279 28.2,80.82 C27.5614782,80.8077441 26.9424756,81.0403174 26.47,81.47 C26.0129443,81.8872627 25.757861,82.4812426 25.77,83.1 C25.7614262,83.7230107 26.0198424,84.3199157 26.48,84.74 C26.9725259,85.1893456 27.6241312,85.4233475 28.29,85.39 C28.8718189,85.3725964 29.4396382,85.2074126 29.94,84.91 L29.94,85.72 C29.4067068,86.0014275 28.8129943,86.1489977 28.21,86.15 C27.3377388,86.1614679 26.4964209,85.827098 25.87,85.22 C25.2477746,84.6516236 24.8933079,83.8477433 24.8933079,83.005 C24.8933079,82.1622567 25.2477746,81.3583764 25.87,80.79 C26.4836059,80.2303117 27.2897368,79.9293561 28.12,79.95 C28.7495186,79.9506663 29.37226,80.0799787 29.95,80.33 L29.94,80.28 Z" id="Path"></path>
            <polygon id="Path" points="30.83 80.08 31.63 80.08 31.63 82.34 34.44 82.34 34.44 80.08 35.24 80.08 35.24 85.99 34.44 85.99 34.44 83.12 31.63 83.12 31.63 85.95 30.83 85.95"></polygon>
            <polygon id="Path" points="36.39 80.08 37.19 80.08 37.19 85.99 36.39 85.99"></polygon>
            <polygon id="Path" points="38.46 80.08 39.25 80.08 39.25 85.17 41.17 85.17 41.17 85.95 38.46 85.95"></polygon>
            <polygon id="Path" points="41.87 80.08 45.12 80.08 45.12 80.88 42.65 80.88 42.65 82.36 45.12 82.36 45.12 83.15 42.65 83.15 42.65 85.18 45.12 85.18 45.12 85.97 41.87 85.97"></polygon>
            <rect id="Rectangle" x="3.99" y="76.5" width="65.42" height="1.48"></rect>
        </g>
    </g>
</svg>